# xmcd CD database file
#
# Track frame offsets:
#	150
#	24302
#	40810
#	63393
#	99428
#	117585
#	159050
#	177002
#	191211
#	218845
#	228994
#	247848
#	268834
#	279668
#	305750
#
# Disc length: 4136 seconds
#
# Revision: 2
# Processed by: cddbd v1.5.2PL0 Copyright (c) Steve Scherf et al.
# Submitted via: CDex 1.83
#
DISCID=cc10260f
DTITLE=Stevie Ray Vaughan - Playlist: The Very Best of Stevie Ray Vaughan
DYEAR=2010
DGENRE=Rock
TTITLE0=Texas Flood
TTITLE1=Pride and Joy
TTITLE2=Dirty Pool
TTITLE3=Voodoo Child (Slight Return)
TTITLE4=Cold Shot
TTITLE5=Tin Pan Alley (aka Roughest Place in Town)
TTITLE6=Change It
TTITLE7=Look at Little Sister
TTITLE8=Ain't Gone 'n' Give Up On Love
TTITLE9=Boot Hill
TTITLE10=Crossfire
TTITLE11=Tightrope
TTITLE12=The House Is Rockin'
TTITLE13=Long Way from Home
TTITLE14=Data Track
EXTD=YEAR: 2010
EXTT0=
EXTT1=
EXTT2=
EXTT3=
EXTT4=
EXTT5=
EXTT6=
EXTT7=
EXTT8=
EXTT9=
EXTT10=
EXTT11=
EXTT12=
EXTT13=
EXTT14=
PLAYORDER=
